<mxfile host="app.diagrams.net" modified="2021-03-03T17:05:00.874Z" agent="5.0 (Windows NT 10.0; Win64; x64) AppleWebKit/537.36 (KHTML, like Gecko) Chrome/88.0.4324.190 Safari/537.36" etag="PZMoJ-_ALIUIOfnVJjYt" version="14.4.4" type="github">
  <diagram id="yanD1s6auPZaYfa-5J64" name="Page-1">
    <mxGraphModel dx="1563" dy="659" grid="1" gridSize="10" guides="1" tooltips="1" connect="1" arrows="1" fold="1" page="1" pageScale="1" pageWidth="850" pageHeight="1100" math="0" shadow="0">
      <root>
        <mxCell id="0" />
        <mxCell id="1" parent="0" />
        <mxCell id="aswUXa0c5YwTRBwQK4K9-1" value="Image sent to API via POST request" style="rounded=0;whiteSpace=wrap;html=1;" vertex="1" parent="1">
          <mxGeometry x="290" y="170" width="120" height="60" as="geometry" />
        </mxCell>
        <mxCell id="aswUXa0c5YwTRBwQK4K9-2" value="Painting from picture" style="text;html=1;strokeColor=none;fillColor=none;align=center;verticalAlign=middle;whiteSpace=wrap;rounded=0;" vertex="1" parent="1">
          <mxGeometry x="50" y="180" width="40" height="20" as="geometry" />
        </mxCell>
        <mxCell id="aswUXa0c5YwTRBwQK4K9-3" value="User input: image.jpg,&lt;br&gt;or telegram" style="ellipse;whiteSpace=wrap;html=1;aspect=fixed;" vertex="1" parent="1">
          <mxGeometry x="180" y="160" width="80" height="80" as="geometry" />
        </mxCell>
        <mxCell id="aswUXa0c5YwTRBwQK4K9-5" value="API returns 3 URLs of similar pictures to user" style="rounded=0;whiteSpace=wrap;html=1;" vertex="1" parent="1">
          <mxGeometry x="1690" y="200" width="120" height="60" as="geometry" />
        </mxCell>
        <mxCell id="aswUXa0c5YwTRBwQK4K9-12" style="edgeStyle=orthogonalEdgeStyle;rounded=0;orthogonalLoop=1;jettySize=auto;html=1;exitX=1;exitY=0.5;exitDx=0;exitDy=0;entryX=0;entryY=0.5;entryDx=0;entryDy=0;" edge="1" parent="1" source="aswUXa0c5YwTRBwQK4K9-7" target="aswUXa0c5YwTRBwQK4K9-10">
          <mxGeometry relative="1" as="geometry" />
        </mxCell>
        <mxCell id="aswUXa0c5YwTRBwQK4K9-13" style="edgeStyle=orthogonalEdgeStyle;rounded=0;orthogonalLoop=1;jettySize=auto;html=1;exitX=1;exitY=0.75;exitDx=0;exitDy=0;entryX=0;entryY=0.5;entryDx=0;entryDy=0;" edge="1" parent="1" source="aswUXa0c5YwTRBwQK4K9-7" target="aswUXa0c5YwTRBwQK4K9-8">
          <mxGeometry relative="1" as="geometry" />
        </mxCell>
        <mxCell id="aswUXa0c5YwTRBwQK4K9-7" value="After the POST request, spits out file as sequence of bytes" style="shape=hexagon;perimeter=hexagonPerimeter2;whiteSpace=wrap;html=1;fixedSize=1;" vertex="1" parent="1">
          <mxGeometry x="450" y="160" width="150" height="80" as="geometry" />
        </mxCell>
        <mxCell id="aswUXa0c5YwTRBwQK4K9-14" style="edgeStyle=orthogonalEdgeStyle;rounded=0;orthogonalLoop=1;jettySize=auto;html=1;exitX=1;exitY=0.5;exitDx=0;exitDy=0;entryX=0;entryY=0.5;entryDx=0;entryDy=0;" edge="1" parent="1" source="aswUXa0c5YwTRBwQK4K9-8" target="aswUXa0c5YwTRBwQK4K9-9">
          <mxGeometry relative="1" as="geometry" />
        </mxCell>
        <mxCell id="aswUXa0c5YwTRBwQK4K9-8" value="Mau takes the file and sends it to the Vision API" style="rounded=0;whiteSpace=wrap;html=1;" vertex="1" parent="1">
          <mxGeometry x="680" y="280" width="120" height="60" as="geometry" />
        </mxCell>
        <mxCell id="aswUXa0c5YwTRBwQK4K9-16" style="edgeStyle=orthogonalEdgeStyle;rounded=0;orthogonalLoop=1;jettySize=auto;html=1;exitX=1;exitY=0.5;exitDx=0;exitDy=0;entryX=0;entryY=0.5;entryDx=0;entryDy=0;" edge="1" parent="1" source="aswUXa0c5YwTRBwQK4K9-9" target="aswUXa0c5YwTRBwQK4K9-11">
          <mxGeometry relative="1" as="geometry" />
        </mxCell>
        <mxCell id="aswUXa0c5YwTRBwQK4K9-9" value="Return df with labels and index column" style="shape=hexagon;perimeter=hexagonPerimeter2;whiteSpace=wrap;html=1;fixedSize=1;" vertex="1" parent="1">
          <mxGeometry x="850" y="270" width="120" height="80" as="geometry" />
        </mxCell>
        <mxCell id="aswUXa0c5YwTRBwQK4K9-15" style="edgeStyle=orthogonalEdgeStyle;rounded=0;orthogonalLoop=1;jettySize=auto;html=1;exitX=1;exitY=0.5;exitDx=0;exitDy=0;entryX=0;entryY=0.5;entryDx=0;entryDy=0;" edge="1" parent="1" source="aswUXa0c5YwTRBwQK4K9-10" target="aswUXa0c5YwTRBwQK4K9-11">
          <mxGeometry relative="1" as="geometry" />
        </mxCell>
        <mxCell id="aswUXa0c5YwTRBwQK4K9-10" value="Transform sequence of bytes to flat image vector (resized)" style="rounded=0;whiteSpace=wrap;html=1;" vertex="1" parent="1">
          <mxGeometry x="750" y="110" width="120" height="60" as="geometry" />
        </mxCell>
        <mxCell id="aswUXa0c5YwTRBwQK4K9-11" value="Merge dataframes on index (or stack KNNs?)" style="rounded=0;whiteSpace=wrap;html=1;" vertex="1" parent="1">
          <mxGeometry x="1080" y="200" width="120" height="60" as="geometry" />
        </mxCell>
        <mxCell id="aswUXa0c5YwTRBwQK4K9-17" value="Feed into KNN" style="rounded=0;whiteSpace=wrap;html=1;" vertex="1" parent="1">
          <mxGeometry x="1230" y="200" width="120" height="60" as="geometry" />
        </mxCell>
        <mxCell id="aswUXa0c5YwTRBwQK4K9-18" value="Returns index of closest paintings" style="shape=hexagon;perimeter=hexagonPerimeter2;whiteSpace=wrap;html=1;fixedSize=1;" vertex="1" parent="1">
          <mxGeometry x="1380" y="190" width="120" height="80" as="geometry" />
        </mxCell>
        <mxCell id="aswUXa0c5YwTRBwQK4K9-19" value="From index retrieve respective urls (and additional info)" style="rounded=0;whiteSpace=wrap;html=1;" vertex="1" parent="1">
          <mxGeometry x="1530" y="200" width="120" height="60" as="geometry" />
        </mxCell>
        <mxCell id="aswUXa0c5YwTRBwQK4K9-20" value="Text sent to API via GET request" style="rounded=0;whiteSpace=wrap;html=1;" vertex="1" parent="1">
          <mxGeometry x="340" y="510" width="90" height="60" as="geometry" />
        </mxCell>
        <mxCell id="aswUXa0c5YwTRBwQK4K9-21" value="Painting recommender system" style="text;html=1;strokeColor=none;fillColor=none;align=center;verticalAlign=middle;whiteSpace=wrap;rounded=0;" vertex="1" parent="1">
          <mxGeometry x="50" y="520" width="40" height="20" as="geometry" />
        </mxCell>
        <mxCell id="aswUXa0c5YwTRBwQK4K9-22" value="User input: painting title (str),&lt;br&gt;or telegram" style="ellipse;whiteSpace=wrap;html=1;aspect=fixed;" vertex="1" parent="1">
          <mxGeometry x="140" y="500" width="80" height="80" as="geometry" />
        </mxCell>
        <mxCell id="aswUXa0c5YwTRBwQK4K9-23" value="API returns 3 URLs of similar pictures to user" style="rounded=0;whiteSpace=wrap;html=1;" vertex="1" parent="1">
          <mxGeometry x="1330" y="520" width="120" height="60" as="geometry" />
        </mxCell>
        <mxCell id="aswUXa0c5YwTRBwQK4K9-24" style="edgeStyle=orthogonalEdgeStyle;rounded=0;orthogonalLoop=1;jettySize=auto;html=1;exitX=1;exitY=0.5;exitDx=0;exitDy=0;entryX=0;entryY=0.5;entryDx=0;entryDy=0;" edge="1" parent="1" source="aswUXa0c5YwTRBwQK4K9-26" target="aswUXa0c5YwTRBwQK4K9-32">
          <mxGeometry relative="1" as="geometry" />
        </mxCell>
        <mxCell id="aswUXa0c5YwTRBwQK4K9-26" value="Outputs the index of the painting having the given title" style="shape=hexagon;perimeter=hexagonPerimeter2;whiteSpace=wrap;html=1;fixedSize=1;" vertex="1" parent="1">
          <mxGeometry x="450" y="500" width="150" height="80" as="geometry" />
        </mxCell>
        <mxCell id="aswUXa0c5YwTRBwQK4K9-32" value="Get closest neighbors from pre-trained KNN" style="rounded=0;whiteSpace=wrap;html=1;" vertex="1" parent="1">
          <mxGeometry x="750" y="510" width="120" height="60" as="geometry" />
        </mxCell>
        <mxCell id="aswUXa0c5YwTRBwQK4K9-36" value="From index retrieve respective urls (and additional info)" style="rounded=0;whiteSpace=wrap;html=1;" vertex="1" parent="1">
          <mxGeometry x="1170" y="520" width="120" height="60" as="geometry" />
        </mxCell>
        <mxCell id="aswUXa0c5YwTRBwQK4K9-37" value="Check if title exists in database" style="rounded=0;whiteSpace=wrap;html=1;" vertex="1" parent="1">
          <mxGeometry x="230" y="510" width="100" height="60" as="geometry" />
        </mxCell>
        <mxCell id="aswUXa0c5YwTRBwQK4K9-39" style="edgeStyle=orthogonalEdgeStyle;rounded=0;orthogonalLoop=1;jettySize=auto;html=1;exitX=0.5;exitY=0;exitDx=0;exitDy=0;entryX=0.5;entryY=1;entryDx=0;entryDy=0;" edge="1" parent="1" source="aswUXa0c5YwTRBwQK4K9-38" target="aswUXa0c5YwTRBwQK4K9-32">
          <mxGeometry relative="1" as="geometry" />
        </mxCell>
        <mxCell id="aswUXa0c5YwTRBwQK4K9-38" value="KNN would be trained on complete dataset with vision labels as well" style="rounded=0;whiteSpace=wrap;html=1;" vertex="1" parent="1">
          <mxGeometry x="750" y="610" width="120" height="60" as="geometry" />
        </mxCell>
        <mxCell id="aswUXa0c5YwTRBwQK4K9-40" value="Return dataframe with indexes of closest paintings" style="shape=hexagon;perimeter=hexagonPerimeter2;whiteSpace=wrap;html=1;fixedSize=1;" vertex="1" parent="1">
          <mxGeometry x="910" y="510" width="200" height="80" as="geometry" />
        </mxCell>
      </root>
    </mxGraphModel>
  </diagram>
</mxfile>
